<svg width="168" height="148" viewBox="0 0 168 148" fill="none" xmlns="http://www.w3.org/2000/svg">
<rect x="0.932617" width="166.84" height="147.212" fill="#E84142"/>
<path d="M69.6606 94.0901H59.8384C57.7745 94.0901 56.755 94.0901 56.1333 93.6922C55.4619 93.257 55.0516 92.5359 55.0019 91.7402C54.9646 91.0066 55.4744 90.1115 56.4939 88.3211L79.8682 47.329C80.9002 45.5137 81.4224 44.6061 82.0813 44.2704C82.79 43.9099 83.6355 43.9099 84.3442 44.2704C85.0031 44.6061 85.5253 45.5137 86.5573 47.329L91.5429 56.0322C92.6744 58.0091 93.2463 59.0037 93.495 60.0481C93.7685 61.1795 93.7685 62.3731 93.495 63.5045C93.2463 64.5489 92.6868 65.5435 91.5554 67.5204L79.6942 88.2838C78.5503 90.2855 77.9784 91.2926 77.1827 92.051C76.3248 92.8716 75.2928 93.4684 74.1614 93.8041C73.1294 94.0901 71.9732 94.0901 69.6606 94.0901Z" fill="white"/>
<path d="M108.539 94.0905H94.4648C92.3885 94.0905 91.3441 94.0905 90.7348 93.6927C90.0635 93.2575 89.6532 92.524 89.6034 91.7282C89.5661 90.9947 90.0883 90.0995 91.1327 88.2967L98.1574 76.2365C99.1894 74.4586 99.7116 73.5758 100.358 73.2401C101.067 72.8796 101.9 72.8796 102.609 73.2401C103.267 73.5758 103.777 74.4586 104.822 76.2241L111.871 88.2843C112.916 90.0871 113.45 90.9823 113.413 91.7158C113.376 92.5115 112.953 93.2451 112.282 93.6802C111.66 94.0905 110.615 94.0905 108.539 94.0905Z" fill="white"/>
</svg>
