<svg width="7" height="7" viewBox="0 0 7 7" fill="none" xmlns="http://www.w3.org/2000/svg">
<path fill-rule="evenodd" clip-rule="evenodd" d="M3.5 6.5625C5.19137 6.5625 6.5625 5.19137 6.5625 3.5C6.5625 1.80863 5.19137 0.4375 3.5 0.4375C1.80863 0.4375 0.4375 1.80863 0.4375 3.5C0.4375 5.19137 1.80863 6.5625 3.5 6.5625ZM3.5 7C5.433 7 7 5.433 7 3.5C7 1.567 5.433 0 3.5 0C1.567 0 0 1.567 0 3.5C0 5.433 1.567 7 3.5 7Z" fill="#707070"/>
<path d="M3.03409 5.61293V2.3402H3.94176V5.61293H3.03409ZM3.49219 1.91832C3.35724 1.91832 3.24148 1.87358 3.14489 1.78409C3.0483 1.69318 3 1.58452 3 1.4581C3 1.3331 3.0483 1.22585 3.14489 1.13636C3.24148 1.04545 3.35653 1 3.49006 1C3.62642 1 3.74219 1.04545 3.83736 1.13636C3.93395 1.22585 3.98224 1.3331 3.98224 1.4581C3.98224 1.58452 3.93395 1.69318 3.83736 1.78409C3.74219 1.87358 3.62713 1.91832 3.49219 1.91832Z" fill="#707070"/>
</svg>
